<svg width="147" height="47" viewBox="0 0 147 47" fill="none" xmlns="http://www.w3.org/2000/svg">
<path d="M69.4852 14.2838L63.3661 31.1305H60.8651L67.911 12.6461H69.5233L69.4852 14.2838ZM74.6141 31.1305L68.4823 14.2838L68.4442 12.6461H70.0565L77.1278 31.1305H74.6141ZM74.2968 24.2877V26.2936H63.912V24.2877H74.2968ZM82.2313 12.6461V31.1305H79.7811V12.6461H82.2313ZM95.5868 12.6461V31.1305H93.1366V12.6461H95.5868ZM103.331 20.9615V22.9674H95.0536V20.9615H103.331ZM104.588 12.6461V14.652H95.0536V12.6461H104.588ZM109.704 11.6305V31.1305H107.343V11.6305H109.704ZM112.852 24.4147V24.1227C112.852 23.1324 112.996 22.2142 113.284 21.3678C113.572 20.513 113.987 19.7724 114.528 19.1461C115.07 18.5114 115.726 18.0205 116.496 17.6735C117.266 17.318 118.129 17.1403 119.086 17.1403C120.051 17.1403 120.918 17.318 121.688 17.6735C122.467 18.0205 123.127 18.5114 123.669 19.1461C124.219 19.7724 124.638 20.513 124.926 21.3678C125.213 22.2142 125.357 23.1324 125.357 24.1227V24.4147C125.357 25.4049 125.213 26.3232 124.926 27.1696C124.638 28.0159 124.219 28.7565 123.669 29.3912C123.127 30.0175 122.471 30.5084 121.701 30.8639C120.939 31.2109 120.076 31.3844 119.111 31.3844C118.146 31.3844 117.279 31.2109 116.509 30.8639C115.738 30.5084 115.078 30.0175 114.528 29.3912C113.987 28.7565 113.572 28.0159 113.284 27.1696C112.996 26.3232 112.852 25.4049 112.852 24.4147ZM115.201 24.1227V24.4147C115.201 25.1002 115.281 25.7477 115.442 26.3571C115.603 26.958 115.844 27.4912 116.166 27.9567C116.496 28.4222 116.906 28.7903 117.397 29.0612C117.888 29.3235 118.46 29.4547 119.111 29.4547C119.754 29.4547 120.317 29.3235 120.8 29.0612C121.291 28.7903 121.697 28.4222 122.018 27.9567C122.34 27.4912 122.581 26.958 122.742 26.3571C122.911 25.7477 122.996 25.1002 122.996 24.4147V24.1227C122.996 23.4456 122.911 22.8066 122.742 22.2057C122.581 21.5963 122.336 21.0589 122.006 20.5934C121.684 20.1194 121.278 19.747 120.787 19.4762C120.305 19.2054 119.738 19.0699 119.086 19.0699C118.443 19.0699 117.876 19.2054 117.385 19.4762C116.902 19.747 116.496 20.1194 116.166 20.5934C115.844 21.0589 115.603 21.5963 115.442 22.2057C115.281 22.8066 115.201 23.4456 115.201 24.1227ZM131.781 28.693L135.31 17.3942H136.859L136.555 19.6412L132.962 31.1305H131.451L131.781 28.693ZM129.407 17.3942L132.416 28.8199L132.632 31.1305H131.045L127.058 17.3942H129.407ZM140.236 28.7311L143.105 17.3942H145.441L141.455 31.1305H139.881L140.236 28.7311ZM137.202 17.3942L140.655 28.5026L141.049 31.1305H139.551L135.856 19.6158L135.552 17.3942H137.202Z" fill="#5F43EC"/>
<rect x="1.46692" y="0.825562" width="39.6099" height="39.6099" rx="1.5" stroke="black"/>
<rect x="6.17688" y="6.13049" width="40.6099" height="40.6099" rx="2" fill="#5F43EC"/>
</svg>
