<svg width="28" height="28" viewBox="0 0 28 28" fill="none" xmlns="http://www.w3.org/2000/svg">
<g opacity="0.25">
<path d="M9.11558 14.2372C8.68209 13.1737 8.46126 12.0356 8.46558 10.8872C8.46558 9.10718 8.99342 7.36712 9.98235 5.88708C10.9713 4.40704 12.3769 3.25348 14.0214 2.5723C15.666 1.89111 17.4756 1.71288 19.2214 2.06014C20.9672 2.40741 22.5709 3.26458 23.8295 4.52325C25.0882 5.78192 25.9454 7.38557 26.2926 9.1314C26.6399 10.8772 26.4617 12.6868 25.7805 14.3314C25.0993 15.9759 23.9458 17.3815 22.4657 18.3704C20.9857 19.3594 19.2456 19.8872 17.4656 19.8872C16.3172 19.8915 15.179 19.6707 14.1156 19.2372L12.4656 20.8872H9.46558V23.8872H6.46558V26.8872H1.46558V21.8872L9.11558 14.2372Z" stroke="black" stroke-width="2" stroke-linecap="round" stroke-linejoin="round"/>
<path d="M19.9656 9.88721C20.794 9.88721 21.4656 9.21563 21.4656 8.38721C21.4656 7.55878 20.794 6.88721 19.9656 6.88721C19.1371 6.88721 18.4656 7.55878 18.4656 8.38721C18.4656 9.21563 19.1371 9.88721 19.9656 9.88721Z" fill="black"/>
</g>
</svg>
