<svg width="29" height="29" viewBox="0 0 29 29" fill="none" xmlns="http://www.w3.org/2000/svg">
<path d="M10.981 13.8507C11.8814 15.71 13.3849 17.2097 15.2466 18.1053C15.3839 18.1704 15.5358 18.1985 15.6873 18.187C15.8388 18.1755 15.9847 18.1247 16.1106 18.0397L18.845 16.2132C18.9658 16.1312 19.1054 16.0812 19.2508 16.0678C19.3961 16.0544 19.5425 16.0781 19.6763 16.1366L24.795 18.335C24.97 18.4078 25.1161 18.5361 25.211 18.7002C25.3059 18.8642 25.3442 19.0549 25.32 19.2428C25.1578 20.5091 24.5397 21.6729 23.5814 22.5164C22.6232 23.3599 21.3904 23.8254 20.1138 23.8257C16.1687 23.8257 12.3852 22.2585 9.59556 19.4689C6.80595 16.6793 5.23877 12.8958 5.23877 8.95066C5.23906 7.67403 5.7045 6.44125 6.54802 5.48298C7.39153 4.52472 8.5553 3.90665 9.82158 3.74441C10.0095 3.72027 10.2002 3.75858 10.3642 3.85344C10.5283 3.94831 10.6566 4.09446 10.7294 4.26941L12.9278 9.3991C12.985 9.53073 13.0089 9.6744 12.9975 9.81745C12.986 9.9605 12.9396 10.0985 12.8622 10.2194L11.0356 12.9975C10.9543 13.1232 10.9066 13.2676 10.897 13.417C10.8874 13.5663 10.9163 13.7157 10.981 13.8507Z" stroke="black" stroke-width="0.875" stroke-linecap="round" stroke-linejoin="round"/>
</svg>
