<svg id="Layer_1" enable-background="new 0 0 66 66" height="512" viewBox="0 0 66 66" width="512" xmlns="http://www.w3.org/2000/svg"><g><path d="m48.6 4.9h-6c-.5-2.2-2.4-3.9-4.6-3.9h-3.4c-2.3 0-4.2 1.7-4.6 3.9h-6c-.6 0-1 .4-1 1v1.9h-8.8c-1.7 0-3.1 1.5-3.1 3.3v22.5c-4.2 2.8-6.7 7.4-6.7 12.5 0 5 2.5 9.7 6.6 12.5v3.1c0 1.8 1.4 3.3 3.1 3.3h44.3c1.7 0 3.1-1.5 3.1-3.3v-50.6c0-1.8-1.4-3.3-3.1-3.3h-8.8v-1.9c0-.5-.4-1-1-1zm-23.6 2h5.9c.6 0 1-.4 1-1 0-1.6 1.2-2.9 2.7-2.9h3.4c1.5 0 2.7 1.3 2.7 2.9 0 .6.4 1 1 1h5.9c0 .1 0 3.9 0 3.8h-22.6zm-18.6 39.2c0-12 14.8-17.8 23-9 7.9 8.5 1.8 22.2-9.7 22.2-7.3 0-13.3-5.8-13.3-13.2zm52.1-36.3c.6 0 1.1.6 1.1 1.3v50.7c0 .7-.5 1.3-1.1 1.3h-44.4c-.6 0-1.1-.6-1.1-1.3v-2c2.1 1 4.3 1.5 6.7 1.5 5.9 0 11.2-3.4 13.7-8.6h21.5c.6 0 1-.4 1-1s-.4-1-1-1h-20.7c.5-1.5.7-3 .7-4.6 0-.3 0-.7 0-1h20c.6 0 1-.4 1-1s-.4-1-1-1h-20.3c-.4-2-1.2-3.9-2.4-5.6h22.7c.6 0 1-.4 1-1s-.4-1-1-1h-24.4c-2.9-2.9-6.8-4.6-10.9-4.6-2.3 0-4.6.5-6.7 1.5v-21.3c0-.7.5-1.3 1.1-1.3h9v1.9c0 .6.4 1 1 1h24.6c.6 0 1-.4 1-1v-1.9z"/><path d="m36.3 4c-1.5 0-2.8 1.3-2.8 2.9s1.3 2.9 2.8 2.9 2.8-1.3 2.8-2.9-1.3-2.9-2.8-2.9zm0 3.8c-.4 0-.8-.4-.8-.9s.4-.9.8-.9.8.4.8.9-.4.9-.8.9z"/><path d="m21.6 20.1h-3.9c-.6 0-1 .4-1 1s.4 1 1 1h3.9c.6 0 1-.4 1-1s-.4-1-1-1z"/><path d="m21.6 27.8h-3.9c-.6 0-1 .4-1 1s.4 1 1 1h3.9c.6 0 1-.4 1-1s-.4-1-1-1z"/><path d="m27.1 21.1c0 .6.4 1 1 1h26.8c.6 0 1-.4 1-1s-.4-1-1-1h-26.8c-.5 0-1 .5-1 1z"/><path d="m54.9 27.8h-26.8c-.6 0-1 .4-1 1s.4 1 1 1h26.8c.6 0 1-.4 1-1s-.5-1-1-1z"/><path d="m17.4 51.5c.3 0 .5-.1.7-.3l8.9-8.9c.4-.4.4-1 0-1.4s-1-.4-1.4 0l-8.2 8.2-3.6-3.6c-.4-.4-1-.4-1.4 0s-.4 1 0 1.4l4.3 4.3c.1.2.4.3.7.3z"/></g></svg>