<svg clip-rule="evenodd" fill-rule="evenodd" height="512" stroke-linejoin="round" stroke-miterlimit="2" viewBox="0 0 24 24" width="512" xmlns="http://www.w3.org/2000/svg"><g id="Icon"><path d="m17.984 4.45c.219.293.349.656.349 1.049 0 .394-.13.757-.349 1.049-.249.331-.182.802.149 1.051.331.248.801.181 1.05-.15.408-.543.65-1.218.65-1.95 0-.731-.242-1.406-.65-1.949-.249-.331-.719-.398-1.05-.15-.331.249-.398.72-.149 1.05z"/><path d="m4.817 3.55c-.408.543-.65 1.218-.65 1.949 0 .732.242 1.407.65 1.95.249.331.719.398 1.05.15.331-.249.398-.72.149-1.051-.219-.292-.349-.655-.349-1.049 0-.393.13-.756.349-1.049.249-.33.182-.801-.149-1.05-.331-.248-.801-.181-1.05.15z"/><path d="m20.567 3.45c.429.572.683 1.281.683 2.05s-.254 1.478-.683 2.05c-.249.33-.182.801.149 1.05.331.248.801.181 1.05-.15.618-.822.984-1.843.984-2.95s-.366-2.128-.984-2.95c-.249-.331-.719-.398-1.05-.15-.331.249-.398.72-.149 1.05z"/><path d="m2.234 2.55c-.618.822-.984 1.843-.984 2.95s.366 2.128.984 2.95c.249.331.719.398 1.05.15.331-.249.398-.72.149-1.05-.429-.572-.683-1.281-.683-2.05s.254-1.478.683-2.05c.249-.33.182-.801-.149-1.05-.331-.248-.801-.181-1.05.15z"/><path d="m12 1.25c-2.635 0-4.75 2.036-4.75 4.519v6.462c0 2.483 2.115 4.519 4.75 4.519s4.75-2.036 4.75-4.519v-6.462c0-2.483-2.115-4.519-4.75-4.519zm0 14c-1.783 0-3.25-1.339-3.25-3.019v-6.462c0-1.68 1.467-3.019 3.25-3.019 1.783 0 3.25 1.339 3.25 3.019v6.462c0 1.68-1.467 3.019-3.25 3.019z"/><path d="m12 17.75c-3.144 0-5.75-2.089-5.75-4.75v-2c0-.414-.336-.75-.75-.75s-.75.336-.75.75v2c0 3.415 3.214 6.25 7.25 6.25s7.25-2.835 7.25-6.25v-2c0-.414-.336-.75-.75-.75s-.75.336-.75.75v2c0 2.661-2.606 4.75-5.75 4.75z"/><path d="m11.25 18.5v3.5c0 .414.336.75.75.75s.75-.336.75-.75v-3.5c0-.414-.336-.75-.75-.75s-.75.336-.75.75z"/><path d="m15 21.25h-6c-.414 0-.75.336-.75.75s.336.75.75.75h6c.414 0 .75-.336.75-.75s-.336-.75-.75-.75z"/></g></svg>